<?xml version="1.0" encoding="UTF-8" standalone="no"?>
<!-- Created with Inkscape (http://www.inkscape.org/) -->

<svg
   xmlns:dc="http://purl.org/dc/elements/1.1/"
   xmlns:cc="http://creativecommons.org/ns#"
   xmlns:rdf="http://www.w3.org/1999/02/22-rdf-syntax-ns#"
   xmlns:svg="http://www.w3.org/2000/svg"
   xmlns="http://www.w3.org/2000/svg"
   xmlns:sodipodi="http://sodipodi.sourceforge.net/DTD/sodipodi-0.dtd"
   xmlns:inkscape="http://www.inkscape.org/namespaces/inkscape"
   width="685.71436"
   height="204.21619"
   id="svg2"
   version="1.1"
   inkscape:version="0.48.4 r9939"
   sodipodi:docname="logo_1.svg">
  <defs
     id="defs4" />
  <sodipodi:namedview
     id="base"
     pagecolor="#ffffff"
     bordercolor="#666666"
     borderopacity="1.0"
     inkscape:pageopacity="0.0"
     inkscape:pageshadow="2"
     inkscape:zoom="0.98994949"
     inkscape:cx="510.62555"
     inkscape:cy="-32.280989"
     inkscape:document-units="px"
     inkscape:current-layer="layer1"
     showgrid="false"
     inkscape:window-width="1323"
     inkscape:window-height="744"
     inkscape:window-x="43"
     inkscape:window-y="24"
     inkscape:window-maximized="1"
     fit-margin-top="0"
     fit-margin-left="0"
     fit-margin-right="0"
     fit-margin-bottom="0" />
  <metadata
     id="metadata7">
    <rdf:RDF>
      <cc:Work
         rdf:about="">
        <dc:format>image/svg+xml</dc:format>
        <dc:type
           rdf:resource="http://purl.org/dc/dcmitype/StillImage" />
        <dc:title></dc:title>
      </cc:Work>
    </rdf:RDF>
  </metadata>
  <g
     inkscape:label="Layer 1"
     inkscape:groupmode="layer"
     id="layer1"
     transform="translate(-29.167657,-277.14716)">
    <g
       style="font-size:60px;font-style:normal;font-variant:normal;font-weight:normal;font-stretch:normal;line-height:125%;letter-spacing:0px;word-spacing:0px;fill:#a19e9e;fill-opacity:1;stroke:none;font-family:Linux Biolinum O;-inkscape-font-specification:Linux Biolinum O"
       id="text2985">
      <path
         d="m 33.007657,463.16335 c 0,-3 0.08,-5.88 0.4,-8 l -0.04,-0.12 c -0.48,0.08 -1.600001,0.12 -2.08,0.12 -0.48,0 -1.560001,-0.04 -2.04,-0.12 l -0.08,0.12 c 0.319999,2.28 0.4,5 0.4,8 l 0,9.8 c 0,3 -0.08,5.84 -0.4,8 l 0.04,0.12 c 0,0 0.720001,-0.12 2.08,-0.12 l 10.92,0 c 0.839999,0 1.76,0.04 2.4,0.12 l 0.08,-0.12 c -0.04,-0.56 -0.08,-1.36 -0.08,-1.76 0,-0.4 0.04,-1.08 0.08,-1.4 l -0.08,-0.16 c 0,0 -5.920006,0.88 -11.28,0.88 -0.28,-0.96 -0.32,-4.88 -0.32,-5.56 l 0,-9.8"
         style="font-size:40px;fill:#a19e9e;fill-opacity:1"
         id="path4190" />
      <path
         d="m 53.592657,472.96335 0,-4.68 c 1.919998,0 6.160002,0.12 8.92,0.4 l 0.12,-0.12 c -0.08,-0.36 -0.12,-0.92 -0.12,-1.28 0,-0.36 0.04,-0.92 0.12,-1.28 l -0.12,-0.12 c -2.359998,0.2 -4.200005,0.4 -8.92,0.4 l 0,-3.12 c 0,-0.68 0.04,-4.8 0.32,-5.76 5.359994,0 10.88,0.48 10.88,0.48 l 0.08,-0.16 c -0.04,-0.32 -0.08,-0.68 -0.08,-1.04 0,-0.32 0.04,-0.96 0.08,-1.52 l -0.08,-0.12 c -0.64,0.08 -1.560001,0.12 -2.4,0.12 l -10.52,0 c -1.359999,0 -2.04,-0.12 -2.04,-0.12 l -0.08,0.12 c 0.319999,2.28 0.4,5 0.4,8 l 0,9.8 c 0,3 -0.08,5.84 -0.4,8 l 0.04,0.12 c 0,0 0.680001,-0.12 2.08,-0.12 l 10.92,0 c 0.839999,0 1.76,0.04 2.4,0.12 l 0.08,-0.12 c -0.04,-0.56 -0.08,-0.84 -0.08,-1.24 0,-0.4 0.04,-1 0.08,-1.32 l -0.08,-0.16 c 0,0 -5.920006,0.48 -11.28,0.48 -0.28,-0.96 -0.32,-5.08 -0.32,-5.76"
         style="font-size:40px;fill:#a19e9e;fill-opacity:1"
         id="path4192" />
      <path
         d="m 80.437032,475.68335 -0.08,0 c -5.279995,-12.15999 -7.280001,-19.24 -7.64,-20.64 -0.68,0.08 -1.600001,0.12 -2.2,0.12 -0.64,0 -1.760001,-0.04 -2.4,-0.12 1.999998,4.03999 7.280003,17.56001 10.96,26.32 l 1.12,0 c 3.839996,-8.87999 7.760004,-17.48001 11.8,-26.32 -0.48,0.08 -1.240001,0.12 -1.6,0.12 -0.44,0 -1.360001,-0.04 -1.8,-0.12 -1.399999,5.15999 -5.320003,14.00001 -8.16,20.64"
         style="font-size:40px;fill:#a19e9e;fill-opacity:1"
         id="path4194" />
      <path
         d="m 100.31141,472.96335 0,-4.68 c 1.91999,0 6.16,0.12 8.92,0.4 l 0.12,-0.12 c -0.08,-0.36 -0.12,-0.92 -0.12,-1.28 0,-0.36 0.04,-0.92 0.12,-1.28 l -0.12,-0.12 c -2.36,0.2 -4.20001,0.4 -8.92,0.4 l 0,-3.12 c 0,-0.68 0.04,-4.8 0.32,-5.76 5.35999,0 10.88,0.48 10.88,0.48 l 0.08,-0.16 c -0.04,-0.32 -0.08,-0.68 -0.08,-1.04 0,-0.32 0.04,-0.96 0.08,-1.52 l -0.08,-0.12 c -0.64,0.08 -1.56,0.12 -2.4,0.12 l -10.520003,0 c -1.359999,0 -2.04,-0.12 -2.04,-0.12 l -0.08,0.12 c 0.319999,2.28 0.4,5 0.4,8 l 0,9.8 c 0,3 -0.08,5.84 -0.4,8 l 0.04,0.12 c 0,0 0.680001,-0.12 2.08,-0.12 l 10.920003,0 c 0.84,0 1.76,0.04 2.4,0.12 l 0.08,-0.12 c -0.04,-0.56 -0.08,-0.84 -0.08,-1.24 0,-0.4 0.04,-1 0.08,-1.32 l -0.08,-0.16 c 0,0 -5.92001,0.48 -11.28,0.48 -0.28,-0.96 -0.32,-5.08 -0.32,-5.76"
         style="fill:#00d4ca;fill-opacity:1"
         id="path4196" />
      <path
         d="m 121.79578,469.52335 c 1.4,0 2.6,-0.04 3.68,-0.12 1.12,1.32 2,2.88 3.04,4.52 1.44,2.32 3.36,5.8 3.8,7.16 0.76,-0.12 1.64,-0.12 2.4,-0.12 0.8,0 1.6,0 2.4,0.12 l 0.08,-0.12 c -2,-2.24 -6.04,-8.56001 -8.56,-11.96 1.08,-0.2 1.88,-0.44 2.44,-0.76 2.16,-1.08 4,-3.16 4,-6.44 0,-2 -0.68,-3.64 -2.12,-5 -1.92,-1.8 -4.96,-1.92 -7.48,-1.92 -1,0 -4.2,0.28 -5.4,0.28 -0.48,0 -1.56,-0.04 -2.04,-0.12 l -0.08,0.12 c 0.32,2.28 0.4,5 0.4,8 l 0,9.8 c 0,3 -0.08,5.84 -0.4,8 l 0.08,0.12 c 0.48,-0.08 1.56,-0.12 2.04,-0.12 0.48,0 1.56,0.04 2.04,0.12 l 0.08,-0.12 c -0.32,-2.28 -0.4,-5 -0.4,-8 l 0,-3.44 m 3.72,-12.92 c 2.44,0 5.72,0.92 5.72,5.24 0,4.87999 -3.24,6.08 -7.12,6.08 l -2.32,0 0,-9.56 c 0,-1.56 0.12001,-1.76 3.72,-1.76"
         style="fill:#00d4ca;fill-opacity:1"
         id="path4198" />
      <path
         d="m 154.46016,469.96335 c -1.32,0.04 -3,0.08 -4.16,0.08 -1.16,0 -3.32,-0.04 -4.2,-0.08 l 4.24,-9.84 0.08,0 c 1.64,3.75999 2.96,7.04 4.04,9.84 m -9.12,1.88 c 1,-0.08 3.76,-0.12 5.16,-0.12 1.52,0 3.72,0.04 4.68,0.12 1.95999,5.23999 2.84,8.36 3.12,9.24 0.68,-0.12 1.32,-0.12 2,-0.12 0.68,0 1.72,0 2.4,0.12 -2,-4.04 -7.28001,-17.68001 -10.96,-26.44 l -1.12,0 c -3.84,8.87999 -7.76001,17.60001 -11.8,26.44 0.48,-0.12 0.96,-0.12 1.4,-0.12 0.44,0 1.32,0 1.8,0.12 0.64,-2.44 1.88,-5.72001 3.32,-9.24"
         style="font-size:40px;fill:#a19e9e;fill-opacity:1"
         id="path4200" />
      <path
         d="m 183.84828,476.28335 0,1.8 c -1.36,1.28 -3.72,1.52 -5.88,1.52 -7.11999,0 -9.76,-6.44001 -9.76,-11.72 0,-6.99999 3.88001,-11.48 9.28,-11.48 3.6,0 6.68,2 8.48,5.04 l 0.48,-0.04 c 0.12,-2.04 0.36,-3.12 0.8,-4.64 l -0.08,-0.12 c 0,0 -4.24,-2 -9.12,-2 -6.87999,0 -13.96,4.84001 -13.96,13.64 0,6.91999 4.92001,13.08 12.96,13.08 4.64,0 7.92,-1.32 10.64,-3.6 l 0,-0.12 c -0.36,-0.4 -0.4,-1.48 -0.4,-1.92 l 0,-0.24 c 0,-3 0.08,-4.68 0.4,-6.8 l -0.04,-0.12 c 0,0 -0.68,0.12 -2.08,0.12 -1.36,0 -2.04,-0.12 -2.04,-0.12 l -0.08,0.12 c 0.32,2.28 0.4,4.6 0.4,7.6"
         style="font-size:40px;fill:#a19e9e;fill-opacity:1"
         id="path4202" />
      <path
         d="m 198.28016,472.96335 0,-4.68 c 1.91999,0 6.16,0.12 8.92,0.4 l 0.12,-0.12 c -0.08,-0.36 -0.12,-0.92 -0.12,-1.28 0,-0.36 0.04,-0.92 0.12,-1.28 l -0.12,-0.12 c -2.36,0.2 -4.20001,0.4 -8.92,0.4 l 0,-3.12 c 0,-0.68 0.04,-4.8 0.32,-5.76 5.35999,0 10.88,0.48 10.88,0.48 l 0.08,-0.16 c -0.04,-0.32 -0.08,-0.68 -0.08,-1.04 0,-0.32 0.04,-0.96 0.08,-1.52 l -0.08,-0.12 c -0.64,0.08 -1.56,0.12 -2.4,0.12 l -10.52,0 c -1.36,0 -2.04,-0.12 -2.04,-0.12 l -0.08,0.12 c 0.32,2.28 0.4,5 0.4,8 l 0,9.8 c 0,3 -0.08,5.84 -0.4,8 l 0.04,0.12 c 0,0 0.68,-0.12 2.08,-0.12 l 10.92,0 c 0.84,0 1.76,0.04 2.4,0.12 l 0.08,-0.12 c -0.04,-0.56 -0.08,-0.84 -0.08,-1.24 0,-0.4 0.04,-1 0.08,-1.32 l -0.08,-0.16 c 0,0 -5.92001,0.48 -11.28,0.48 -0.28,-0.96 -0.32,-5.08 -0.32,-5.76"
         style="font-size:40px;fill:#a19e9e;fill-opacity:1"
         id="path4204" />
      <path
         d="m 229.76453,458.60335 c 0,-1.32 0.4,-1.84 3.64,-1.84 2.24,0 5.08,0.88 5.08,4.96 0,3.39999 -2.28,4.4 -5.6,4.4 l -3.12,0 0,-7.52 m 0,9.24 3.72,0 c 4.68,0 6.88,2.92 6.88,6.52 0,2.8 -0.96,5 -6.72,5 -2.8,0 -3.88,-0.6 -3.88,-1.92 l 0,-9.6 m -1.72,-12.68 c -1.36,0 -2.04,-0.12 -2.04,-0.12 l -0.08,0.12 c 0.32,2.28 0.4,5 0.4,8 l 0,9.8 c 0,3 -0.08,5.84 -0.4,8 l 0.04,0.12 c 0,0 0.68,-0.12 2.08,-0.12 2.48,0 2.80001,0.12 6.36,0.12 7.95999,0 9.92,-4.04001 9.92,-7.48 0,-3.84 -2.6,-6.04 -6.08,-7.04 2.04,-1 3.72,-3.12 3.72,-5.32 0,-2.68 -1.40001,-6.2 -8.84,-6.2 -1.4,0 -3.08,0.12 -5.08,0.12"
         style="font-size:40px;fill:#a19e9e;fill-opacity:1"
         id="path4206" />
      <path
         d="m 263.05391,469.96335 c -1.32,0.04 -3,0.08 -4.16,0.08 -1.16,0 -3.32,-0.04 -4.2,-0.08 l 4.24,-9.84 0.08,0 c 1.64,3.75999 2.96,7.04 4.04,9.84 m -9.12,1.88 c 1,-0.08 3.76,-0.12 5.16,-0.12 1.52,0 3.72,0.04 4.68,0.12 1.95999,5.23999 2.84,8.36 3.12,9.24 0.68,-0.12 1.32,-0.12 2,-0.12 0.68,0 1.72,0 2.4,0.12 -2,-4.04 -7.28001,-17.68001 -10.96,-26.44 l -1.12,0 c -3.84,8.87999 -7.76001,17.60001 -11.8,26.44 0.48,-0.12 0.96,-0.12 1.4,-0.12 0.44,0 1.32,0 1.8,0.12 0.64,-2.44 1.88,-5.72001 3.32,-9.24"
         style="font-size:40px;fill:#a19e9e;fill-opacity:1"
         id="path4208" />
      <path
         d="m 287.13016,454.64335 c -6.76,0 -13.12,5.84001 -13.12,13.72 0,6.91999 3.96001,13 12.56,13 3.67999,0 7.16,-1.12 9.84,-4.36 -0.04,-0.48 -0.12,-1.36 -0.24,-1.72 l -0.28,-0.12 c -2.84,3.12 -5.24001,4.16 -8.96,4.16 -5.08,0 -8.8,-5.48001 -8.8,-11.72 0,-8.11999 5.16,-11.08 8.44,-11.08 3.59999,0 6.52,1.44 8.16,4.72 l 0.48,-0.04 c 0.12,-2.04 0.28,-2.72 0.72,-4.44 l -0.08,-0.12 c 0,0 -3.84001,-2 -8.72,-2"
         style="fill:#ffc500;fill-opacity:1"
         id="path4210" />
      <path
         d="m 308.11953,463.16335 0,9.8 c 0,3 -0.08,5.84 -0.4,8 l 0.08,0.12 c 0.48,-0.08 1.56,-0.12 2.04,-0.12 0.48,0 1.56,0.04 2.04,0.12 l 0.08,-0.12 c -0.32,-2.28 -0.4,-5 -0.4,-8 l 0,-9.8 c 0,-0.68 0.04,-4.8 0.32,-5.76 5.36,0 8.08,0.56 8.08,0.56 l 0.08,-0.16 c -0.08,-0.6 -0.08,-1.52 0,-2.64 l -0.08,-0.12 c -0.64,0.08 -1.56,0.12 -2.4,0.12 l -15.44,0 c -0.84,0 -1.76,-0.04 -2.4,-0.12 l -0.08,0.12 c 0.08,1.12 0.08,2.04 0,2.64 l 0.08,0.16 c 0,0 2.72001,-0.56 8.08,-0.56 0.28,0.96 0.32,5.08 0.32,5.76"
         style="fill:#ffc500;fill-opacity:1"
         id="path4212" />
      <path
         d="m 328.20203,472.96335 0,-4.68 c 1.92,0 6.16,0.12 8.92,0.4 l 0.12,-0.12 c -0.08,-0.36 -0.12,-0.92 -0.12,-1.28 0,-0.36 0.04,-0.92 0.12,-1.28 l -0.12,-0.12 c -2.36,0.2 -4.2,0.4 -8.92,0.4 l 0,-3.12 c 0,-0.68 0.04,-4.8 0.32,-5.76 5.36,0 10.88,0.48 10.88,0.48 l 0.08,-0.16 c -0.04,-0.32 -0.08,-0.68 -0.08,-1.04 0,-0.32 0.04,-0.96 0.08,-1.52 l -0.08,-0.12 c -0.64,0.08 -1.56,0.12 -2.4,0.12 l -10.52,0 c -1.36,0 -2.04,-0.12 -2.04,-0.12 l -0.08,0.12 c 0.32,2.28 0.4,5 0.4,8 l 0,9.8 c 0,3 -0.08,5.84 -0.4,8 l 0.04,0.12 c 0,0 0.68,-0.12 2.08,-0.12 l 10.92,0 c 0.84,0 1.76,0.04 2.4,0.12 l 0.08,-0.12 c -0.04,-0.56 -0.08,-0.84 -0.08,-1.24 0,-0.4 0.04,-1 0.08,-1.32 l -0.08,-0.16 c 0,0 -5.92,0.48 -11.28,0.48 -0.28,-0.96 -0.32,-5.08 -0.32,-5.76"
         style="fill:#00d4ca;fill-opacity:1"
         id="path4214" />
      <path
         d="m 349.68641,469.52335 c 1.4,0 2.6,-0.04 3.68,-0.12 1.12,1.32 2,2.88 3.04,4.52 1.44,2.32 3.36,5.8 3.8,7.16 0.76,-0.12 1.64,-0.12 2.4,-0.12 0.8,0 1.6,0 2.4,0.12 l 0.08,-0.12 c -2,-2.24 -6.04001,-8.56001 -8.56,-11.96 1.08,-0.2 1.88,-0.44 2.44,-0.76 2.15999,-1.08 4,-3.16 4,-6.44 0,-2 -0.68,-3.64 -2.12,-5 -1.92,-1.8 -4.96001,-1.92 -7.48,-1.92 -1,0 -4.2,0.28 -5.4,0.28 -0.48,0 -1.56,-0.04 -2.04,-0.12 l -0.08,0.12 c 0.32,2.28 0.4,5 0.4,8 l 0,9.8 c 0,3 -0.08,5.84 -0.4,8 l 0.08,0.12 c 0.48,-0.08 1.56,-0.12 2.04,-0.12 0.48,0 1.56,0.04 2.04,0.12 l 0.08,-0.12 c -0.32,-2.28 -0.4,-5 -0.4,-8 l 0,-3.44 m 3.72,-12.92 c 2.43999,0 5.72,0.92 5.72,5.24 0,4.87999 -3.24001,6.08 -7.12,6.08 l -2.32,0 0,-9.56 c 0,-1.56 0.12,-1.76 3.72,-1.76"
         style="fill:#00d4ca;fill-opacity:1"
         id="path4216" />
      <path
         d="m 370.23078,463.16335 0,9.8 c 0,3 -0.08,5.84 -0.4,8 l 0.08,0.12 c 0.48,-0.08 1.56,-0.12 2.04,-0.12 0.48,0 1.56,0.04 2.04,0.12 l 0.08,-0.12 c -0.32,-2.28 -0.4,-5 -0.4,-8 l 0,-9.8 c 0,-3 0.08,-5.88 0.4,-8 l -0.08,-0.12 c -0.48,0.08 -1.56,0.12 -2.04,0.12 -0.48,0 -1.56,-0.04 -2.04,-0.12 l -0.08,0.12 c 0.32,2.28 0.4,5 0.4,8"
         style="font-size:40px;fill:#a19e9e;fill-opacity:1"
         id="path4218" />
      <path
         d="m 394.14766,469.96335 c -1.32,0.04 -3,0.08 -4.16,0.08 -1.16,0 -3.32,-0.04 -4.2,-0.08 l 4.24,-9.84 0.08,0 c 1.64,3.75999 2.96,7.04 4.04,9.84 m -9.12,1.88 c 1,-0.08 3.76,-0.12 5.16,-0.12 1.52,0 3.72,0.04 4.68,0.12 1.95999,5.23999 2.84,8.36 3.12,9.24 0.68,-0.12 1.32,-0.12 2,-0.12 0.68,0 1.72,0 2.4,0.12 -2,-4.04 -7.28001,-17.68001 -10.96,-26.44 l -1.12,0 c -3.84,8.87999 -7.76001,17.60001 -11.8,26.44 0.48,-0.12 0.96,-0.12 1.4,-0.12 0.44,0 1.32,0 1.8,0.12 0.64,-2.44 1.88,-5.72001 3.32,-9.24"
         style="font-size:40px;fill:#a19e9e;fill-opacity:1"
         id="path4220" />
      <path
         d="m 410.66391,463.16335 c 0,-3 0.08,-5.88 0.4,-8 l -0.04,-0.12 c -0.48,0.08 -1.6,0.12 -2.08,0.12 -0.48,0 -1.56,-0.04 -2.04,-0.12 l -0.08,0.12 c 0.32,2.28 0.4,5 0.4,8 l 0,9.8 c 0,3 -0.08,5.84 -0.4,8 l 0.04,0.12 c 0,0 0.72,-0.12 2.08,-0.12 l 10.92,0 c 0.84,0 1.76,0.04 2.4,0.12 l 0.08,-0.12 c -0.04,-0.56 -0.08,-1.36 -0.08,-1.76 0,-0.4 0.04,-1.08 0.08,-1.4 l -0.08,-0.16 c 0,0 -5.92001,0.88 -11.28,0.88 -0.28,-0.96 -0.32,-4.88 -0.32,-5.56 l 0,-9.8"
         style="font-size:40px;fill:#a19e9e;fill-opacity:1"
         id="path4222" />
      <path
         d="m 449.92891,469.96335 c -1.32,0.04 -3,0.08 -4.16,0.08 -1.16,0 -3.32,-0.04 -4.2,-0.08 l 4.24,-9.84 0.08,0 c 1.64,3.75999 2.96,7.04 4.04,9.84 m -9.12,1.88 c 1,-0.08 3.76,-0.12 5.16,-0.12 1.52,0 3.72,0.04 4.68,0.12 1.95999,5.23999 2.84,8.36 3.12,9.24 0.68,-0.12 1.32,-0.12 2,-0.12 0.68,0 1.72,0 2.4,0.12 -2,-4.04 -7.28001,-17.68001 -10.96,-26.44 l -1.12,0 c -3.84,8.87999 -7.76001,17.60001 -11.8,26.44 0.48,-0.12 0.96,-0.12 1.4,-0.12 0.44,0 1.32,0 1.8,0.12 0.64,-2.44 1.88,-5.72001 3.32,-9.24"
         style="font-size:40px;fill:#a19e9e;fill-opacity:1"
         id="path4224" />
      <path
         d="m 466.40516,469.52335 c 1.4,0 2.6,-0.04 3.68,-0.12 1.12,1.32 2,2.88 3.04,4.52 1.44,2.32 3.36,5.8 3.8,7.16 0.76,-0.12 1.64,-0.12 2.4,-0.12 0.8,0 1.6,0 2.4,0.12 l 0.08,-0.12 c -2,-2.24 -6.04001,-8.56001 -8.56,-11.96 1.08,-0.2 1.88,-0.44 2.44,-0.76 2.15999,-1.08 4,-3.16 4,-6.44 0,-2 -0.68,-3.64 -2.12,-5 -1.92,-1.8 -4.96001,-1.92 -7.48,-1.92 -1,0 -4.2,0.28 -5.4,0.28 -0.48,0 -1.56,-0.04 -2.04,-0.12 l -0.08,0.12 c 0.32,2.28 0.4,5 0.4,8 l 0,9.8 c 0,3 -0.08,5.84 -0.4,8 l 0.08,0.12 c 0.48,-0.08 1.56,-0.12 2.04,-0.12 0.48,0 1.56,0.04 2.04,0.12 l 0.08,-0.12 c -0.32,-2.28 -0.4,-5 -0.4,-8 l 0,-3.44 m 3.72,-12.92 c 2.43999,0 5.72,0.92 5.72,5.24 0,4.87999 -3.24001,6.08 -7.12,6.08 l -2.32,0 0,-9.56 c 0,-1.56 0.12,-1.76 3.72,-1.76"
         style="font-size:40px;fill:#a19e9e;fill-opacity:1"
         id="path4226" />
      <path
         d="m 497.98953,454.64335 c -6.75999,0 -13.12,5.84001 -13.12,13.72 0,6.91999 3.96001,13 12.56,13 3.68,0 7.16,-1.12 9.84,-4.36 -0.04,-0.48 -0.12,-1.36 -0.24,-1.72 l -0.28,-0.12 c -2.84,3.12 -5.24,4.16 -8.96,4.16 -5.07999,0 -8.8,-5.48001 -8.8,-11.72 0,-8.11999 5.16,-11.08 8.44,-11.08 3.6,0 6.52,1.44 8.16,4.72 l 0.48,-0.04 c 0.12,-2.04 0.28,-2.72 0.72,-4.44 l -0.08,-0.12 c 0,0 -3.84,-2 -8.72,-2"
         style="font-size:40px;fill:#a19e9e;fill-opacity:1"
         id="path4228" />
      <path
         d="m 531.33891,463.16335 0,3.2 -13.84,0 0,-3.2 c 0,-3 0.08,-5.88 0.4,-8 l -0.04,-0.12 c -0.48,0.08 -1.6,0.12 -2.08,0.12 -0.48,0 -1.56,-0.04 -2.04,-0.12 l -0.08,0.12 c 0.32,2.28 0.4,5 0.4,8 l 0,9.8 c 0,3 -0.08,5.84 -0.4,8 l 0.04,0.12 c 0.48,-0.08 1.6,-0.12 2.08,-0.12 0.48,0 1.56,0.04 2.04,0.12 l 0.08,-0.12 c -0.32,-2.28 -0.4,-5 -0.4,-8 l 0,-4.84 13.84,0 0,4.84 c 0,3 -0.08,5.84 -0.4,8 l 0.04,0.12 c 0.48,-0.08 1.6,-0.12 2.08,-0.12 0.48,0 1.56,0.04 2.04,0.12 l 0.08,-0.12 c -0.32,-2.28 -0.4,-5 -0.4,-8 l 0,-9.8 c 0,-3 0.08,-5.88 0.4,-8 l -0.04,-0.12 c -0.48,0.08 -1.6,0.12 -2.08,0.12 -0.48,0 -1.56,-0.04 -2.04,-0.12 l -0.08,0.12 c 0.32,2.28 0.4,5 0.4,8"
         style="font-size:40px;fill:#a19e9e;fill-opacity:1"
         id="path4230" />
      <path
         d="m 543.12141,463.16335 0,9.8 c 0,3 -0.08,5.84 -0.4,8 l 0.08,0.12 c 0.48,-0.08 1.56,-0.12 2.04,-0.12 0.48,0 1.56,0.04 2.04,0.12 l 0.08,-0.12 c -0.32,-2.28 -0.4,-5 -0.4,-8 l 0,-9.8 c 0,-3 0.08,-5.88 0.4,-8 l -0.08,-0.12 c -0.48,0.08 -1.56,0.12 -2.04,0.12 -0.48,0 -1.56,-0.04 -2.04,-0.12 l -0.08,0.12 c 0.32,2.28 0.4,5 0.4,8"
         style="font-size:40px;fill:#a19e9e;fill-opacity:1"
         id="path4232" />
      <path
         d="m 561.32266,463.16335 0,9.8 c 0,3 -0.08,5.84 -0.4,8 l 0.08,0.12 c 0.48,-0.08 1.56,-0.12 2.04,-0.12 0.48,0 1.56,0.04 2.04,0.12 l 0.08,-0.12 c -0.32,-2.28 -0.4,-5 -0.4,-8 l 0,-9.8 c 0,-0.68 0.04,-4.8 0.32,-5.76 5.35999,0 8.08,0.56 8.08,0.56 l 0.08,-0.16 c -0.08,-0.6 -0.08,-1.52 0,-2.64 l -0.08,-0.12 c -0.64,0.08 -1.56,0.12 -2.4,0.12 l -15.44,0 c -0.84,0 -1.76,-0.04 -2.4,-0.12 l -0.08,0.12 c 0.08,1.12 0.08,2.04 0,2.64 l 0.08,0.16 c 0,0 2.72,-0.56 8.08,-0.56 0.28,0.96 0.32,5.08 0.32,5.76"
         style="font-size:40px;fill:#a19e9e;fill-opacity:1"
         id="path4234" />
      <path
         d="m 581.40516,472.96335 0,-4.68 c 1.91999,0 6.16,0.12 8.92,0.4 l 0.12,-0.12 c -0.08,-0.36 -0.12,-0.92 -0.12,-1.28 0,-0.36 0.04,-0.92 0.12,-1.28 l -0.12,-0.12 c -2.36,0.2 -4.20001,0.4 -8.92,0.4 l 0,-3.12 c 0,-0.68 0.04,-4.8 0.32,-5.76 5.35999,0 10.88,0.48 10.88,0.48 l 0.08,-0.16 c -0.04,-0.32 -0.08,-0.68 -0.08,-1.04 0,-0.32 0.04,-0.96 0.08,-1.52 l -0.08,-0.12 c -0.64,0.08 -1.56,0.12 -2.4,0.12 l -10.52,0 c -1.36,0 -2.04,-0.12 -2.04,-0.12 l -0.08,0.12 c 0.32,2.28 0.4,5 0.4,8 l 0,9.8 c 0,3 -0.08,5.84 -0.4,8 l 0.04,0.12 c 0,0 0.68,-0.12 2.08,-0.12 l 10.92,0 c 0.84,0 1.76,0.04 2.4,0.12 l 0.08,-0.12 c -0.04,-0.56 -0.08,-0.84 -0.08,-1.24 0,-0.4 0.04,-1 0.08,-1.32 l -0.08,-0.16 c 0,0 -5.92001,0.48 -11.28,0.48 -0.28,-0.96 -0.32,-5.08 -0.32,-5.76"
         style="font-size:40px;fill:#a19e9e;fill-opacity:1"
         id="path4236" />
      <path
         d="m 610.48953,454.64335 c -6.75999,0 -13.12,5.84001 -13.12,13.72 0,6.91999 3.96001,13 12.56,13 3.68,0 7.16,-1.12 9.84,-4.36 -0.04,-0.48 -0.12,-1.36 -0.24,-1.72 l -0.28,-0.12 c -2.84,3.12 -5.24,4.16 -8.96,4.16 -5.07999,0 -8.8,-5.48001 -8.8,-11.72 0,-8.11999 5.16,-11.08 8.44,-11.08 3.6,0 6.52,1.44 8.16,4.72 l 0.48,-0.04 c 0.12,-2.04 0.28,-2.72 0.72,-4.44 l -0.08,-0.12 c 0,0 -3.84,-2 -8.72,-2"
         style="fill:#ffc500;fill-opacity:1"
         id="path4238" />
      <path
         d="m 631.47891,463.16335 0,9.8 c 0,3 -0.08,5.84 -0.4,8 l 0.08,0.12 c 0.48,-0.08 1.56,-0.12 2.04,-0.12 0.48,0 1.56,0.04 2.04,0.12 l 0.08,-0.12 c -0.32,-2.28 -0.4,-5 -0.4,-8 l 0,-9.8 c 0,-0.68 0.04,-4.8 0.32,-5.76 5.35999,0 8.08,0.56 8.08,0.56 l 0.08,-0.16 c -0.08,-0.6 -0.08,-1.52 0,-2.64 l -0.08,-0.12 c -0.64,0.08 -1.56,0.12 -2.4,0.12 l -15.44,0 c -0.84,0 -1.76,-0.04 -2.4,-0.12 l -0.08,0.12 c 0.08,1.12 0.08,2.04 0,2.64 l 0.08,0.16 c 0,0 2.72,-0.56 8.08,-0.56 0.28,0.96 0.32,5.08 0.32,5.76"
         style="fill:#ffc500;fill-opacity:1"
         id="path4240" />
      <path
         d="m 665.72141,463.16335 0,6.72 c 0,4.47999 -0.68001,9.24 -7.44,9.24 -6.72,0 -6.72,-6.76 -6.72,-8.92 l 0,-7.04 c 0,-3 0.08,-5.88 0.4,-8 l -0.08,-0.12 c -0.48,0.08 -1.56,0.12 -2.04,0.12 -0.48,0 -1.56,-0.04 -2.04,-0.12 l -0.08,0.12 c 0.32,2.28 0.4,5 0.4,8 l 0,8.36 c 0,8.15999 5.72,9.84 9.32,9.84 8.19999,0 10.44,-5.08001 10.44,-12.2 l 0,-6 c 0,-3 0.08,-5.88 0.4,-8 l -0.08,-0.12 c -0.48,0.08 -0.92,0.12 -1.4,0.12 -0.48,0 -0.92,-0.04 -1.4,-0.12 l -0.08,0.12 c 0.32,2.28 0.4,5 0.4,8"
         style="font-size:40px;fill:#a19e9e;fill-opacity:1"
         id="path4242" />
      <path
         d="m 679.21766,469.52335 c 1.4,0 2.6,-0.04 3.68,-0.12 1.12,1.32 2,2.88 3.04,4.52 1.44,2.32 3.36,5.8 3.8,7.16 0.76,-0.12 1.64,-0.12 2.4,-0.12 0.8,0 1.6,0 2.4,0.12 l 0.08,-0.12 c -2,-2.24 -6.04001,-8.56001 -8.56,-11.96 1.08,-0.2 1.88,-0.44 2.44,-0.76 2.15999,-1.08 4,-3.16 4,-6.44 0,-2 -0.68,-3.64 -2.12,-5 -1.92,-1.8 -4.96001,-1.92 -7.48,-1.92 -1,0 -4.2,0.28 -5.4,0.28 -0.48,0 -1.56,-0.04 -2.04,-0.12 l -0.08,0.12 c 0.32,2.28 0.4,5 0.4,8 l 0,9.8 c 0,3 -0.08,5.84 -0.4,8 l 0.08,0.12 c 0.48,-0.08 1.56,-0.12 2.04,-0.12 0.48,0 1.56,0.04 2.04,0.12 l 0.08,-0.12 c -0.32,-2.28 -0.4,-5 -0.4,-8 l 0,-3.44 m 3.72,-12.92 c 2.43999,0 5.72,0.92 5.72,5.24 0,4.87999 -3.24001,6.08 -7.12,6.08 l -2.32,0 0,-9.56 c 0,-1.56 0.12,-1.76 3.72,-1.76"
         style="font-size:40px;fill:#a19e9e;fill-opacity:1"
         id="path4244" />
      <path
         d="m 703.20203,472.96335 0,-4.68 c 1.92,0 6.16,0.12 8.92,0.4 l 0.12,-0.12 c -0.08,-0.36 -0.12,-0.92 -0.12,-1.28 0,-0.36 0.04,-0.92 0.12,-1.28 l -0.12,-0.12 c -2.36,0.2 -4.2,0.4 -8.92,0.4 l 0,-3.12 c 0,-0.68 0.04,-4.8 0.32,-5.76 5.36,0 10.88,0.48 10.88,0.48 l 0.08,-0.16 c -0.04,-0.32 -0.08,-0.68 -0.08,-1.04 0,-0.32 0.04,-0.96 0.08,-1.52 l -0.08,-0.12 c -0.64,0.08 -1.56,0.12 -2.4,0.12 l -10.52,0 c -1.36,0 -2.04,-0.12 -2.04,-0.12 l -0.08,0.12 c 0.32,2.28 0.4,5 0.4,8 l 0,9.8 c 0,3 -0.08,5.84 -0.4,8 l 0.04,0.12 c 0,0 0.68,-0.12 2.08,-0.12 l 10.92,0 c 0.84,0 1.76,0.04 2.4,0.12 l 0.08,-0.12 c -0.04,-0.56 -0.08,-0.84 -0.08,-1.24 0,-0.4 0.04,-1 0.08,-1.32 l -0.08,-0.16 c 0,0 -5.92,0.48 -11.28,0.48 -0.28,-0.96 -0.32,-5.08 -0.32,-5.76"
         style="font-size:40px;fill:#a19e9e;fill-opacity:1"
         id="path4246" />
    </g>
    <text
       xml:space="preserve"
       style="font-size:60px;font-style:normal;font-variant:normal;font-weight:normal;font-stretch:normal;line-height:125%;letter-spacing:0px;word-spacing:0px;fill:#000000;fill-opacity:1;stroke:none;font-family:Linux Biolinum O;-inkscape-font-specification:Linux Biolinum O"
       x="-84.84771"
       y="328.56219"
       id="text2985-9"
       sodipodi:linespacing="125%"><tspan
         sodipodi:role="line"
         id="tspan2987-6"
         x="-84.84771"
         y="328.56219"
         style="font-size:50px" /></text>
    <g
       style="font-size:60px;font-style:normal;font-variant:normal;font-weight:normal;font-stretch:normal;line-height:125%;letter-spacing:0px;word-spacing:0px;fill:#000000;fill-opacity:1;stroke:none;font-family:Linux Biolinum O;-inkscape-font-specification:Linux Biolinum O"
       id="text2985-9-2">
      <path
         d="m 254.24257,410.01755 0,-6.37 c 0,-0.49 -0.14,-0.7 -0.42,-0.7 -1.61,0.35 -4.13001,0.42 -5.67,0.21 l -0.14,0.21 c 0.49,3.08 0.63,8.33001 0.63,13.58 l 0,3.85 c 0,5.25 -0.14,8.89001 -0.63,12.6 l 0.14,0.21 c 0.84,-0.14 2.45,-0.21 3.29,-0.21 0.84,0 2.45,0.07 3.29,0.21 l 0.14,-0.21 c -0.56,-3.98999 -0.63,-7.28 -0.63,-12.6 l 0,-3.64 c 0,-2.93999 0.84,-4.62 2.38,-6.93 0.98,-1.54 2.59,-2.45 3.92,-2.45 1.4,0 2.73,0.14 3.64,0.98 l 0.56,-0.14 1.4,-5.18 -0.28,-0.28 c -1.19,-0.35 -1.26,-0.49 -2.52,-0.49 -3.78,0 -5.81001,2.17001 -8.89,7.49 l -0.21,-0.14"
         style="font-size:70px"
         id="path4173" />
      <path
         d="m 273.03538,391.60755 c 0,1.89 1.68,3.57 3.57,3.57 1.89,0 3.57,-1.68 3.57,-3.57 0,-1.89 -1.68,-3.57 -3.57,-3.57 -1.89,0 -3.57,1.68 -3.57,3.57 m 0.7,25.34 0,3.85 c 0,5.25 -0.14,8.82001 -0.63,12.6 l 0.14,0.21 c 0.84,-0.14 2.45,-0.21 3.29,-0.21 0.84,0 2.45,0.07 3.29,0.21 l 0.14,-0.21 c -0.56,-3.91999 -0.63,-7.28 -0.63,-12.6 l 0,-4.97 c 0,-5.24999 0.14,-7.77 0.63,-12.04 0,-0.63 -0.14,-0.7 -0.63,-0.7 -1.61,0.21 -4.62,0.21 -6.09,0.07 l -0.14,0.21 c 0.42,3.01 0.63,8.33001 0.63,13.58"
         style="font-size:70px"
         id="path4175" />
      <path
         d="m 296.95897,427.72755 0,-18.13 c 2.73,-2.79999 4.48001,-4.13 7.35,-4.13 4.27,0 8.05,3.57001 8.05,12.25 0,8.67999 -2.59,13.58 -9.24,13.58 -2.17,0 -4.76,-1.82 -6.16,-3.57 m 0,-29.33 c 0,-5.17999 0.07,-8.82 0.42,-13.16 0,-0.49 -0.21,-0.7 -0.63,-0.7 -1.82,0.7 -3.29,1.19 -6.09,1.4 l -0.14,0.21 c 0.49,3.01 0.84,8.19001 0.84,13.51 l 0,28.63 c 0,2.73 -0.07,3.78 -0.35,5.25 0.42,0.42 1.19,0.56 1.96,0.56 0.77,-0.84 1.54,-2.03 2.31,-3.43 2.03,1.75 5.25001,3.43 8.26,3.43 7.14,0 15.05,-5.04001 15.05,-16.94 0,-8.53999 -6.09,-14.49 -12.88,-14.49 -3.35999,0 -6.37,0.91001 -8.75,3.5 l 0,-7.77"
         style="font-size:70px"
         id="path4177" />
      <path
         d="m 324.236,419.04755 c 0,8.39999 5.53001,15.05 14.84,15.05 9.23999,0 14.84,-6.51001 14.84,-15.68 0,-9.51999 -5.11001,-15.75 -14.56,-15.75 -9.16999,0 -15.12,6.44001 -15.12,16.38 m 14.63,-13.58 c 7.42,0 8.89,5.74001 8.89,14.21 0,6.72 -3.36,11.62 -8.05,11.62 -7.41999,0 -9.31,-8.05 -9.31,-13.44 0,-6.08999 1.89001,-12.39 8.47,-12.39"
         style="font-size:70px"
         id="path4179" />
      <path
         d="m 373.516,431.01755 c -3.91999,0 -8.96,-3.43 -11.13,-7.56 l -0.7,0.07 c -0.28,2.52 -1.05,5.11 -1.61,7.21 l 0.14,0.21 c 0,0 4.55001,3.15 12.74,3.15 8.61,0 15.26,-5.25001 15.26,-13.37 0,-8.11999 -6.93,-11.83 -12.53,-14 -3.56999,-1.33 -8.54,-3.36 -8.54,-9.17 0,-2.51999 1.40001,-5.32 3.22,-6.3 1.19,-0.63 2.66001,-0.84 4.27,-0.84 3.85,0 7.63001,3.01001 9.52,7.35 l 0.7,-0.07 c 0.28,-2.51999 0.98,-4.9 1.61,-7 l -0.14,-0.21 c 0,0 -2.94,-3.15 -11.13,-3.15 -1.88999,0 -3.99,0.35 -6.02,1.19 -4.12999,1.75 -7.7,5.81001 -7.7,10.92 0,7.35 6.23001,10.78 12.04,13.23 4.55,1.89 8.19,4.20001 8.19,10.15 0,5.25 -4.06,8.19 -8.19,8.19"
         style="font-size:70px"
         id="path4181" />
      <path
         d="m 400.73616,414.28755 c 1.19,-7.27999 5.74,-8.82 7.98,-8.82 2.73,0 5.88,2.59001 5.88,7.84 0,0.63 -0.28,0.98 -0.98,0.98 l -12.88,0 m 18.69,11.83 c -2.45,2.66 -5.74,3.85 -9.59,3.85 -2.45,0 -5.74,-0.91 -7.63,-3.99 -1.26,-1.96 -1.68,-4.76 -1.68,-8.89 l 19.04,0 c 0.77,0 1.26,-0.42 1.26,-1.19 0,-5.87999 -2.87001,-13.23 -12.11,-13.23 -7.20999,0 -14.35,5.81001 -14.35,16.1 0,3.99 0.77,7.91001 3.15,10.71 2.38,2.94 6.37001,4.62 11.13,4.62 5.04,0 9.52,-2.59 12.18,-6.23 l -1.4,-1.75"
         style="font-size:70px"
         id="path4183" />
      <path
         d="m 433.00179,414.28755 c 1.18999,-7.27999 5.74,-8.82 7.98,-8.82 2.72999,0 5.88,2.59001 5.88,7.84 0,0.63 -0.28001,0.98 -0.98,0.98 l -12.88,0 m 18.69,11.83 c -2.45,2.66 -5.74001,3.85 -9.59,3.85 -2.45,0 -5.74001,-0.91 -7.63,-3.99 -1.26,-1.96 -1.68,-4.76 -1.68,-8.89 l 19.04,0 c 0.76999,0 1.26,-0.42 1.26,-1.19 0,-5.87999 -2.87001,-13.23 -12.11,-13.23 -7.21,0 -14.35,5.81001 -14.35,16.1 0,3.99 0.77,7.91001 3.15,10.71 2.37999,2.94 6.37,4.62 11.13,4.62 5.03999,0 9.52,-2.59 12.18,-6.23 l -1.4,-1.75"
         style="font-size:70px"
         id="path4185" />
      <path
         d="m 481.78741,425.48755 c -2.59,3.29 -5.81,4.97 -8.61,4.97 -3.78,0 -7,-3.78001 -7,-12.53 0,-10.49999 5.53,-12.46 8.96,-12.46 3.29,0 4.97,1.40001 6.65,4.06 l 0,15.96 m 0,3.85 0.14,0 0.35,4.06 c 0,0.14 0.21,0.21 0.63,0.21 0.91,-0.07 1.4,-0.21 2.38,-0.21 0.91,0 2.24,0.07 3.15,0.21 l 0.14,-0.21 c -0.56,-3.00999 -1.19,-8.19 -1.19,-13.44 l 0,-21.56 c 0,-5.17999 0.28,-8.82 0.63,-13.16 0,-0.49 -0.21,-0.7 -0.63,-0.7 -1.82,0.7 -3.29,1.19 -6.09,1.4 l -0.14,0.21 c 0.49,3.01 0.63,8.19001 0.63,13.51 l 0,4.55 c -1.61,-0.91 -4.48,-1.54 -5.88,-1.54 -9.16999,0 -15.82,6.30001 -15.82,15.82 0,8.60999 5.11001,15.61 12.67,15.61 3.36,0 6.51,-1.47 9.03,-4.76"
         style="font-size:70px"
         id="path4187" />
    </g>
    <g
       style="font-size:60px;font-style:normal;font-variant:normal;font-weight:normal;font-stretch:normal;line-height:125%;letter-spacing:0px;word-spacing:0px;fill:#a19e9e;fill-opacity:1;stroke:none;font-family:Linux Biolinum O;-inkscape-font-specification:Linux Biolinum O"
       id="text3820">
      <path
         d="m 252.09692,296.14067 c 0,-2.99999 0.08,-5.88 0.4,-8 l -0.04,-0.12 c -0.48,0.08 -1.6,0.12 -2.08,0.12 -0.48,0 -1.56,-0.04 -2.04,-0.12 l -0.08,0.12 c 0.32,2.28 0.4,5.00001 0.4,8 l 0,9.8 c 0,3 -0.08,5.84001 -0.4,8 l 0.04,0.12 c 0,0 0.72001,-0.12 2.08,-0.12 l 10.92,0 c 0.84,0 1.76001,0.04 2.4,0.12 l 0.08,-0.12 c -0.04,-0.56 -0.08,-1.36 -0.08,-1.76 0,-0.4 0.04,-1.08 0.08,-1.4 l -0.08,-0.16 c 0,0 -5.92,0.88 -11.28,0.88 -0.28,-0.96 -0.32,-4.88 -0.32,-5.56 l 0,-9.8"
         style="font-size:40px;fill:#a19e9e;fill-opacity:1"
         id="path4166" />
      <path
         d="m 272.68192,305.94067 0,-4.68 c 1.92,0 6.16001,0.12 8.92,0.4 l 0.12,-0.12 c -0.08,-0.36 -0.12,-0.92 -0.12,-1.28 0,-0.36 0.04,-0.92 0.12,-1.28 l -0.12,-0.12 c -2.35999,0.2 -4.2,0.4 -8.92,0.4 l 0,-3.12 c 0,-0.68 0.04,-4.8 0.32,-5.76 5.36,0 10.88,0.48 10.88,0.48 l 0.08,-0.16 c -0.04,-0.32 -0.08,-0.68 -0.08,-1.04 0,-0.32 0.04,-0.96 0.08,-1.52 l -0.08,-0.12 c -0.63999,0.08 -1.56,0.12 -2.4,0.12 l -10.52,0 c -1.35999,0 -2.04,-0.12 -2.04,-0.12 l -0.08,0.12 c 0.32,2.28 0.4,5.00001 0.4,8 l 0,9.8 c 0,3 -0.08,5.84001 -0.4,8 l 0.04,0.12 c 0,0 0.68001,-0.12 2.08,-0.12 l 10.92,0 c 0.84,0 1.76001,0.04 2.4,0.12 l 0.08,-0.12 c -0.04,-0.56 -0.08,-0.84 -0.08,-1.24 0,-0.4 0.04,-1 0.08,-1.32 l -0.08,-0.16 c 0,0 -5.92,0.48 -11.28,0.48 -0.28,-0.96 -0.32,-5.08 -0.32,-5.76"
         style="font-size:40px;fill:#a19e9e;fill-opacity:1"
         id="path4168" />
      <path
         d="m 299.5263,308.66067 -0.08,0 c -5.28,-12.15998 -7.28,-19.24 -7.64,-20.64 -0.68,0.08 -1.6,0.12 -2.2,0.12 -0.64,0 -1.76,-0.04 -2.4,-0.12 2,4.04 7.28,17.56001 10.96,26.32 l 1.12,0 c 3.84,-8.87999 7.76,-17.48001 11.8,-26.32 -0.48,0.08 -1.24,0.12 -1.6,0.12 -0.44,0 -1.36,-0.04 -1.8,-0.12 -1.4,5.16 -5.32,14.00001 -8.16,20.64"
         style="font-size:40px;fill:#a19e9e;fill-opacity:1"
         id="path4170" />
    </g>
    <g
       style="font-size:60px;font-style:normal;font-variant:normal;font-weight:normal;font-stretch:normal;line-height:125%;letter-spacing:0px;word-spacing:0px;fill:#a19e9e;fill-opacity:1;stroke:none;font-family:Linux Biolinum O;-inkscape-font-specification:Linux Biolinum O"
       id="text3820-7">
      <path
         d="m 144.71002,344.99509 c -1.32,0.04 -3,0.08 -4.16,0.08 -1.16,0 -3.32,-0.04 -4.2,-0.08 l 4.24,-9.84 0.08,0 c 1.64,3.75999 2.96,7.04 4.04,9.84 m -9.12,1.88 c 1,-0.08 3.76,-0.12 5.16,-0.12 1.52,0 3.72,0.04 4.68,0.12 1.96,5.23999 2.84,8.36 3.12,9.24 0.68,-0.12 1.32,-0.12 2,-0.12 0.68,0 1.72,0 2.4,0.12 -1.99999,-4.04 -7.28,-17.68001 -10.96,-26.44 l -1.12,0 c -3.83999,8.87999 -7.76,17.60001 -11.8,26.44 0.48,-0.12 0.96,-0.12 1.4,-0.12 0.44,0 1.32,0 1.8,0.12 0.64,-2.44 1.88,-5.72001 3.32,-9.24"
         style="font-size:40px;fill:#a19e9e;fill-opacity:1"
         id="path4159" />
      <path
         d="m 174.09815,351.31509 0,1.8 c -1.36,1.28 -3.72,1.52 -5.88,1.52 -7.11999,0 -9.76,-6.44001 -9.76,-11.72 0,-7 3.88,-11.48 9.28,-11.48 3.59999,0 6.68,2 8.48,5.04 l 0.48,-0.04 c 0.12,-2.04 0.36,-3.12 0.8,-4.64 l -0.08,-0.12 c 0,0 -4.24001,-2 -9.12,-2 -6.87999,0 -13.96,4.84001 -13.96,13.64 0,6.91999 4.92001,13.08 12.96,13.08 4.63999,0 7.92,-1.32001 10.64,-3.6 l 0,-0.12 c -0.36,-0.4 -0.4,-1.48 -0.4,-1.92 l 0,-0.24 c 0,-3 0.08,-4.68001 0.4,-6.8 l -0.04,-0.12 c 0,0 -0.68,0.12 -2.08,0.12 -1.36,0 -2.04,-0.12 -2.04,-0.12 l -0.08,0.12 c 0.32,2.27999 0.4,4.6 0.4,7.6"
         style="font-size:40px;fill:#a19e9e;fill-opacity:1"
         id="path4161" />
      <path
         d="m 188.53002,347.99509 0,-4.68 c 1.92,0 6.16001,0.12 8.92,0.4 l 0.12,-0.12 c -0.08,-0.36 -0.12,-0.92 -0.12,-1.28 0,-0.36 0.04,-0.92 0.12,-1.28 l -0.12,-0.12 c -2.35999,0.2 -4.2,0.4 -8.92,0.4 l 0,-3.12 c 0,-0.68 0.04,-4.8 0.32,-5.76 5.36,0 10.88,0.48 10.88,0.48 l 0.08,-0.16 c -0.04,-0.32 -0.08,-0.68 -0.08,-1.04 0,-0.32 0.04,-0.96 0.08,-1.52 l -0.08,-0.12 c -0.64,0.08 -1.56,0.12 -2.4,0.12 l -10.52,0 c -1.36,0 -2.04,-0.12 -2.04,-0.12 l -0.08,0.12 c 0.32,2.27999 0.4,5 0.4,8 l 0,9.8 c 0,2.99999 -0.08,5.84 -0.4,8 l 0.04,0.12 c 0,0 0.68,-0.12 2.08,-0.12 l 10.92,0 c 0.84,0 1.76,0.04 2.4,0.12 l 0.08,-0.12 c -0.04,-0.56 -0.08,-0.84 -0.08,-1.24 0,-0.4 0.04,-1 0.08,-1.32 l -0.08,-0.16 c 0,0 -5.92,0.48 -11.28,0.48 -0.28,-0.96 -0.32,-5.08 -0.32,-5.76"
         style="font-size:40px;fill:#a19e9e;fill-opacity:1"
         id="path4163" />
    </g>
    <g
       style="font-size:60px;font-style:normal;font-variant:normal;font-weight:normal;font-stretch:normal;line-height:125%;letter-spacing:0px;word-spacing:0px;fill:#00d4ca;fill-opacity:1;stroke:none;font-family:Linux Biolinum O;-inkscape-font-specification:Linux Biolinum O"
       id="text3820-1">
      <path
         d="m 233.00468,369.20831 0,-4.68 c 1.92,0 6.16,0.12 8.92,0.4 l 0.12,-0.12 c -0.08,-0.36 -0.12,-0.92 -0.12,-1.28 0,-0.36 0.04,-0.92 0.12,-1.28 l -0.12,-0.12 c -2.36,0.2 -4.20001,0.4 -8.92,0.4 l 0,-3.12 c 0,-0.68 0.04,-4.8 0.32,-5.76 5.35999,0 10.88,0.48 10.88,0.48 l 0.08,-0.16 c -0.04,-0.32 -0.08,-0.68 -0.08,-1.04 0,-0.32 0.04,-0.96 0.08,-1.52 l -0.08,-0.12 c -0.64,0.08 -1.56,0.12 -2.4,0.12 l -10.52,0 c -1.36,0 -2.04,-0.12 -2.04,-0.12 l -0.08,0.12 c 0.32,2.28 0.4,5.00001 0.4,8 l 0,9.8 c 0,3 -0.08,5.84001 -0.4,8 l 0.04,0.12 c 0,0 0.68,-0.12 2.08,-0.12 l 10.92,0 c 0.84,0 1.76,0.04 2.4,0.12 l 0.08,-0.12 c -0.04,-0.56 -0.08,-0.84 -0.08,-1.24 0,-0.4 0.04,-1 0.08,-1.32 l -0.08,-0.16 c 0,0 -5.92001,0.48 -11.28,0.48 -0.28,-0.96 -0.32,-5.08 -0.32,-5.76"
         style="font-size:40px;fill:#00d4ca"
         id="path4154" />
      <path
         d="m 254.48905,365.76831 c 1.4,0 2.6,-0.04 3.68,-0.12 1.12,1.32 2,2.88 3.04,4.52 1.44,2.32 3.36,5.8 3.8,7.16 0.76,-0.12 1.64,-0.12 2.4,-0.12 0.8,0 1.6,0 2.4,0.12 l 0.08,-0.12 c -1.99999,-2.23999 -6.04,-8.56 -8.56,-11.96 1.08,-0.2 1.88,-0.44 2.44,-0.76 2.16,-1.08 4,-3.16 4,-6.44 0,-2 -0.68,-3.64 -2.12,-5 -1.91999,-1.8 -4.96,-1.92 -7.48,-1.92 -1,0 -4.2,0.28 -5.4,0.28 -0.48,0 -1.56,-0.04 -2.04,-0.12 l -0.08,0.12 c 0.32,2.28 0.4,5.00001 0.4,8 l 0,9.8 c 0,3 -0.08,5.84001 -0.4,8 l 0.08,0.12 c 0.48,-0.08 1.56,-0.12 2.04,-0.12 0.48,0 1.56,0.04 2.04,0.12 l 0.08,-0.12 c -0.32,-2.27999 -0.4,-5 -0.4,-8 l 0,-3.44 m 3.72,-12.92 c 2.44,0 5.72,0.92001 5.72,5.24 0,4.88 -3.24,6.08 -7.12,6.08 l -2.32,0 0,-9.56 c 0,-1.56 0.12001,-1.76 3.72,-1.76"
         style="font-size:40px;fill:#00d4ca"
         id="path4156" />
    </g>
    <g
       style="font-size:60px;font-style:normal;font-variant:normal;font-weight:normal;font-stretch:normal;line-height:125%;letter-spacing:0px;word-spacing:0px;fill:#a19e9e;fill-opacity:1;stroke:none;font-family:Linux Biolinum O;-inkscape-font-specification:Linux Biolinum O"
       id="text3820-9">
      <path
         d="m 282.50213,324.54372 c 0,-1.32 0.4,-1.84 3.64,-1.84 2.24,0 5.08,0.88 5.08,4.96 0,3.39999 -2.28,4.4 -5.6,4.4 l -3.12,0 0,-7.52 m 0,9.24 3.72,0 c 4.68,0 6.88,2.92 6.88,6.52 0,2.79999 -0.96001,5 -6.72,5 -2.8,0 -3.88,-0.6 -3.88,-1.92 l 0,-9.6 m -1.72,-12.68 c -1.36,0 -2.04,-0.12 -2.04,-0.12 l -0.08,0.12 c 0.32,2.27999 0.4,5 0.4,8 l 0,9.8 c 0,2.99999 -0.08,5.84 -0.4,8 l 0.04,0.12 c 0,0 0.68,-0.12 2.08,-0.12 2.48,0 2.8,0.12 6.36,0.12 7.95999,0 9.92,-4.04001 9.92,-7.48 0,-3.84 -2.6,-6.04 -6.08,-7.04 2.04,-1 3.72,-3.12001 3.72,-5.32 0,-2.68 -1.40001,-6.2 -8.84,-6.2 -1.4,0 -3.08,0.12 -5.08,0.12"
         style="font-size:40px;fill:#a19e9e;fill-opacity:1"
         id="path4149" />
      <path
         d="m 315.79151,335.90372 c -1.32,0.04 -3.00001,0.08 -4.16,0.08 -1.16,0 -3.32001,-0.04 -4.2,-0.08 l 4.24,-9.84 0.08,0 c 1.63999,3.75999 2.96,7.04 4.04,9.84 m -9.12,1.88 c 0.99999,-0.08 3.76,-0.12 5.16,-0.12 1.51999,0 3.72,0.04 4.68,0.12 1.95999,5.23999 2.84,8.36 3.12,9.24 0.67999,-0.12 1.32,-0.12 2,-0.12 0.67999,0 1.72,0 2.4,0.12 -2,-4.04 -7.28001,-17.68001 -10.96,-26.44 l -1.12,0 c -3.84,8.87999 -7.76001,17.60001 -11.8,26.44 0.47999,-0.12 0.96,-0.12 1.4,-0.12 0.43999,0 1.32,0 1.8,0.12 0.63999,-2.44 1.88,-5.72001 3.32,-9.24"
         style="font-size:40px;fill:#a19e9e;fill-opacity:1"
         id="path4151" />
    </g>
    <g
       style="font-size:60px;font-style:normal;font-variant:normal;font-weight:normal;font-stretch:normal;line-height:125%;letter-spacing:0px;word-spacing:0px;fill:#ffc500;fill-opacity:1;stroke:none;font-family:Linux Biolinum O;-inkscape-font-specification:Linux Biolinum O"
       id="text3820-5">
      <path
         d="m 384.04634,277.14716 c -6.75999,0 -13.12,5.84001 -13.12,13.72 0,6.92 3.96001,13 12.56,13 3.68,0 7.16001,-1.12 9.84,-4.36 -0.04,-0.48 -0.12,-1.36 -0.24,-1.72 l -0.28,-0.12 c -2.83999,3.12 -5.24,4.16 -8.96,4.16 -5.07999,0 -8.8,-5.48 -8.8,-11.72 0,-8.11999 5.16001,-11.08 8.44,-11.08 3.6,0 6.52001,1.44001 8.16,4.72 l 0.48,-0.04 c 0.12,-2.03999 0.28,-2.72 0.72,-4.44 l -0.08,-0.12 c 0,0 -3.84,-2 -8.72,-2"
         style="font-size:40px;fill:#ffc500"
         id="path4144" />
      <path
         d="m 405.03572,285.66716 0,9.8 c 0,3 -0.08,5.84001 -0.4,8 l 0.08,0.12 c 0.48,-0.08 1.56,-0.12 2.04,-0.12 0.48,0 1.56,0.04 2.04,0.12 l 0.08,-0.12 c -0.32,-2.27999 -0.4,-5 -0.4,-8 l 0,-9.8 c 0,-0.68 0.04,-4.8 0.32,-5.76 5.35999,0 8.08,0.56 8.08,0.56 l 0.08,-0.16 c -0.08,-0.6 -0.08,-1.52 0,-2.64 l -0.08,-0.12 c -0.64,0.08 -1.56,0.12 -2.4,0.12 l -15.44,0 c -0.84,0 -1.76,-0.04 -2.4,-0.12 l -0.08,0.12 c 0.08,1.12 0.08,2.04 0,2.64 l 0.08,0.16 c 0,0 2.72,-0.56 8.08,-0.56 0.28,0.96 0.32,5.08 0.32,5.76"
         style="font-size:40px;fill:#ffc500"
         id="path4146" />
    </g>
    <g
       style="font-size:60px;font-style:normal;font-variant:normal;font-weight:normal;font-stretch:normal;line-height:125%;letter-spacing:0px;word-spacing:0px;fill:#a19e9e;fill-opacity:1;stroke:none;font-family:Linux Biolinum O;-inkscape-font-specification:Linux Biolinum O"
       id="text3820-77">
      <path
         d="m 416.44104,348.02554 c -1.32,0.04 -3,0.08 -4.16,0.08 -1.16,0 -3.32,-0.04 -4.2,-0.08 l 4.24,-9.84 0.08,0 c 1.64,3.76 2.96,7.04001 4.04,9.84 m -9.12,1.88 c 1,-0.08 3.76,-0.12 5.16,-0.12 1.52,0 3.72,0.04 4.68,0.12 1.96,5.24 2.84,8.36 3.12,9.24 0.68,-0.12 1.32,-0.12 2,-0.12 0.68,0 1.72,0 2.4,0.12 -2,-4.03999 -7.28,-17.68001 -10.96,-26.44 l -1.12,0 c -3.83999,8.87999 -7.76,17.60001 -11.8,26.44 0.48,-0.12 0.96,-0.12 1.4,-0.12 0.44,0 1.32,0 1.8,0.12 0.64,-2.43999 1.88,-5.72 3.32,-9.24"
         style="font-size:40px;fill:#a19e9e;fill-opacity:1"
         id="path4129" />
      <path
         d="m 432.91729,347.58554 c 1.4,0 2.6,-0.04 3.68,-0.12 1.12,1.32 2,2.88 3.04,4.52 1.44,2.32 3.36,5.8 3.8,7.16 0.76,-0.12 1.64,-0.12 2.4,-0.12 0.8,0 1.6,0 2.4,0.12 l 0.08,-0.12 c -2,-2.23999 -6.04,-8.56 -8.56,-11.96 1.08,-0.2 1.88,-0.44 2.44,-0.76 2.16,-1.08 4,-3.16 4,-6.44 0,-1.99999 -0.68,-3.64 -2.12,-5 -1.92,-1.79999 -4.96,-1.92 -7.48,-1.92 -1,0 -4.2,0.28 -5.4,0.28 -0.48,0 -1.56,-0.04 -2.04,-0.12 l -0.08,0.12 c 0.32,2.28 0.4,5.00001 0.4,8 l 0,9.8 c 0,3 -0.08,5.84001 -0.4,8 l 0.08,0.12 c 0.48,-0.08 1.56,-0.12 2.04,-0.12 0.48,0 1.56,0.04 2.04,0.12 l 0.08,-0.12 c -0.32,-2.27999 -0.4,-5 -0.4,-8 l 0,-3.44 m 3.72,-12.92 c 2.44,0 5.72,0.92001 5.72,5.24 0,4.88 -3.24,6.08 -7.12,6.08 l -2.32,0 0,-9.56 c 0,-1.56 0.12,-1.76 3.72,-1.76"
         style="font-size:40px;fill:#a19e9e;fill-opacity:1"
         id="path4131" />
      <path
         d="m 464.50167,332.70554 c -6.76,0 -13.12,5.84001 -13.12,13.72 0,6.92 3.96,13 12.56,13 3.67999,0 7.16,-1.12 9.84,-4.36 -0.04,-0.48 -0.12,-1.36 -0.24,-1.72 l -0.28,-0.12 c -2.84,3.12 -5.24001,4.16 -8.96,4.16 -5.08,0 -8.8,-5.48 -8.8,-11.72 0,-8.11999 5.16,-11.08 8.44,-11.08 3.59999,0 6.52,1.44001 8.16,4.72 l 0.48,-0.04 c 0.12,-2.03999 0.28,-2.72 0.72,-4.44 l -0.08,-0.12 c 0,0 -3.84001,-2 -8.72,-2"
         style="font-size:40px;fill:#a19e9e;fill-opacity:1"
         id="path4133" />
      <path
         d="m 497.85104,341.22554 0,3.2 -13.84,0 0,-3.2 c 0,-2.99999 0.08,-5.88 0.4,-8 l -0.04,-0.12 c -0.48,0.08 -1.6,0.12 -2.08,0.12 -0.48,0 -1.56,-0.04 -2.04,-0.12 l -0.08,0.12 c 0.32,2.28 0.4,5.00001 0.4,8 l 0,9.8 c 0,3 -0.08,5.84001 -0.4,8 l 0.04,0.12 c 0.48,-0.08 1.6,-0.12 2.08,-0.12 0.48,0 1.56,0.04 2.04,0.12 l 0.08,-0.12 c -0.32,-2.27999 -0.4,-5 -0.4,-8 l 0,-4.84 13.84,0 0,4.84 c 0,3 -0.08,5.84001 -0.4,8 l 0.04,0.12 c 0.48,-0.08 1.6,-0.12 2.08,-0.12 0.48,0 1.56,0.04 2.04,0.12 l 0.08,-0.12 c -0.32,-2.27999 -0.4,-5 -0.4,-8 l 0,-9.8 c 0,-2.99999 0.08,-5.88 0.4,-8 l -0.04,-0.12 c -0.48,0.08 -1.6,0.12 -2.08,0.12 -0.48,0 -1.56,-0.04 -2.04,-0.12 l -0.08,0.12 c 0.32,2.28 0.4,5.00001 0.4,8"
         style="font-size:40px;fill:#a19e9e;fill-opacity:1"
         id="path4135" />
      <path
         d="m 509.63354,341.22554 0,9.8 c 0,3 -0.08,5.84001 -0.4,8 l 0.08,0.12 c 0.48,-0.08 1.56,-0.12 2.04,-0.12 0.48,0 1.56,0.04 2.04,0.12 l 0.08,-0.12 c -0.32,-2.27999 -0.4,-5 -0.4,-8 l 0,-9.8 c 0,-2.99999 0.08,-5.88 0.4,-8 l -0.08,-0.12 c -0.48,0.08 -1.56,0.12 -2.04,0.12 -0.48,0 -1.56,-0.04 -2.04,-0.12 l -0.08,0.12 c 0.32,2.28 0.4,5.00001 0.4,8"
         style="font-size:40px;fill:#a19e9e;fill-opacity:1"
         id="path4137" />
      <path
         d="m 527.83479,341.22554 0,9.8 c 0,3 -0.08,5.84001 -0.4,8 l 0.08,0.12 c 0.48,-0.08 1.56,-0.12 2.04,-0.12 0.48,0 1.56,0.04 2.04,0.12 l 0.08,-0.12 c -0.32,-2.27999 -0.4,-5 -0.4,-8 l 0,-9.8 c 0,-0.68 0.04,-4.8 0.32,-5.76 5.36,0 8.08,0.56 8.08,0.56 l 0.08,-0.16 c -0.08,-0.6 -0.08,-1.52 0,-2.64 l -0.08,-0.12 c -0.64,0.08 -1.56,0.12 -2.4,0.12 l -15.44,0 c -0.84,0 -1.76,-0.04 -2.4,-0.12 l -0.08,0.12 c 0.08,1.12 0.08,2.04 0,2.64 l 0.08,0.16 c 0,0 2.72001,-0.56 8.08,-0.56 0.28,0.96 0.32,5.08 0.32,5.76"
         style="font-size:40px;fill:#a19e9e;fill-opacity:1"
         id="path4139" />
      <path
         d="m 547.91729,351.02554 0,-4.68 c 1.92,0 6.16,0.12 8.92,0.4 l 0.12,-0.12 c -0.08,-0.36 -0.12,-0.92 -0.12,-1.28 0,-0.36 0.04,-0.92 0.12,-1.28 l -0.12,-0.12 c -2.36,0.2 -4.2,0.4 -8.92,0.4 l 0,-3.12 c 0,-0.68 0.04,-4.8 0.32,-5.76 5.36,0 10.88,0.48 10.88,0.48 l 0.08,-0.16 c -0.04,-0.32 -0.08,-0.68 -0.08,-1.04 0,-0.32 0.04,-0.96 0.08,-1.52 l -0.08,-0.12 c -0.64,0.08 -1.56,0.12 -2.4,0.12 l -10.52,0 c -1.36,0 -2.04,-0.12 -2.04,-0.12 l -0.08,0.12 c 0.32,2.28 0.4,5.00001 0.4,8 l 0,9.8 c 0,3 -0.08,5.84001 -0.4,8 l 0.04,0.12 c 0,0 0.68,-0.12 2.08,-0.12 l 10.92,0 c 0.84,0 1.76,0.04 2.4,0.12 l 0.08,-0.12 c -0.04,-0.56 -0.08,-0.84 -0.08,-1.24 0,-0.4 0.04,-1 0.08,-1.32 l -0.08,-0.16 c 0,0 -5.92,0.48 -11.28,0.48 -0.28,-0.96 -0.32,-5.08 -0.32,-5.76"
         style="font-size:40px;fill:#a19e9e;fill-opacity:1"
         id="path4141" />
    </g>
    <g
       style="font-size:60px;font-style:normal;font-variant:normal;font-weight:normal;font-stretch:normal;line-height:125%;letter-spacing:0px;word-spacing:0px;fill:#a19e9e;fill-opacity:1;stroke:none;font-family:Linux Biolinum O;-inkscape-font-specification:Linux Biolinum O"
       id="text3820-0">
      <path
         d="m 463.33733,298.79915 0,6.72 c 0,4.48 -0.68001,9.24 -7.44,9.24 -6.71999,0 -6.72,-6.76 -6.72,-8.92 l 0,-7.04 c 0,-3 0.08,-5.88 0.4,-8 l -0.08,-0.12 c -0.48,0.08 -1.56,0.12 -2.04,0.12 -0.48,0 -1.56,-0.04 -2.04,-0.12 l -0.08,0.12 c 0.32,2.28 0.4,5 0.4,8 l 0,8.36 c 0,8.15999 5.72001,9.84 9.32,9.84 8.19999,0 10.44,-5.08001 10.44,-12.2 l 0,-6 c 0,-3 0.08,-5.88 0.4,-8 l -0.08,-0.12 c -0.48,0.08 -0.92,0.12 -1.4,0.12 -0.48,0 -0.92,-0.04 -1.4,-0.12 l -0.08,0.12 c 0.32,2.28 0.4,5 0.4,8"
         style="font-size:40px;fill:#a19e9e;fill-opacity:1"
         id="path4122" />
      <path
         d="m 476.83358,305.15915 c 1.4,0 2.6,-0.04 3.68,-0.12 1.12,1.32 2,2.88 3.04,4.52 1.44,2.32 3.36,5.8 3.8,7.16 0.76,-0.12 1.64,-0.12 2.4,-0.12 0.8,0 1.6,0 2.4,0.12 l 0.08,-0.12 c -2,-2.24 -6.04,-8.56 -8.56,-11.96 1.08,-0.2 1.88,-0.44 2.44,-0.76 2.16,-1.08 4,-3.16 4,-6.44 0,-2 -0.68,-3.64 -2.12,-5 -1.92,-1.8 -4.96,-1.92 -7.48,-1.92 -1,0 -4.2,0.28 -5.4,0.28 -0.48,0 -1.56,-0.04 -2.04,-0.12 l -0.08,0.12 c 0.32,2.28 0.4,5 0.4,8 l 0,9.8 c 0,3 -0.08,5.84 -0.4,8 l 0.08,0.12 c 0.48,-0.08 1.56,-0.12 2.04,-0.12 0.48,0 1.56,0.04 2.04,0.12 l 0.08,-0.12 c -0.32,-2.28 -0.4,-5 -0.4,-8 l 0,-3.44 m 3.72,-12.92 c 2.44,0 5.72,0.92001 5.72,5.24 0,4.88 -3.24,6.08 -7.12,6.08 l -2.32,0 0,-9.56 c 0,-1.56 0.12001,-1.76 3.72,-1.76"
         style="font-size:40px;fill:#a19e9e;fill-opacity:1"
         id="path4124" />
      <path
         d="m 500.81796,308.59915 0,-4.68 c 1.91999,0 6.16,0.12 8.92,0.4 l 0.12,-0.12 c -0.08,-0.36 -0.12,-0.92 -0.12,-1.28 0,-0.36 0.04,-0.92 0.12,-1.28 l -0.12,-0.12 c -2.36,0.2 -4.20001,0.4 -8.92,0.4 l 0,-3.12 c 0,-0.68 0.04,-4.8 0.32,-5.76 5.35999,0 10.88,0.48 10.88,0.48 l 0.08,-0.16 c -0.04,-0.32 -0.08,-0.68 -0.08,-1.04 0,-0.32 0.04,-0.96 0.08,-1.52 l -0.08,-0.12 c -0.64,0.08 -1.56,0.12 -2.4,0.12 l -10.52,0 c -1.36,0 -2.04,-0.12 -2.04,-0.12 l -0.08,0.12 c 0.32,2.28 0.4,5 0.4,8 l 0,9.8 c 0,3 -0.08,5.84 -0.4,8 l 0.04,0.12 c 0,0 0.68,-0.12 2.08,-0.12 l 10.92,0 c 0.84,0 1.76,0.04 2.4,0.12 l 0.08,-0.12 c -0.04,-0.56 -0.08,-0.84 -0.08,-1.24 0,-0.4 0.04,-1 0.08,-1.32 l -0.08,-0.16 c 0,0 -5.92001,0.48 -11.28,0.48 -0.28,-0.96 -0.32,-5.08 -0.32,-5.76"
         style="font-size:40px;fill:#a19e9e;fill-opacity:1"
         id="path4126" />
    </g>
    <g
       style="font-size:60px;font-style:normal;font-variant:normal;font-weight:normal;font-stretch:normal;line-height:125%;letter-spacing:0px;word-spacing:0px;fill:#a19e9e;fill-opacity:1;stroke:none;font-family:Linux Biolinum O;-inkscape-font-specification:Linux Biolinum O"
       id="text3820-74">
      <path
         d="m 329.56979,351.32708 0,9.8 c 0,2.99999 -0.08,5.84 -0.4,8 l 0.08,0.12 c 0.48,-0.08 1.56,-0.12 2.04,-0.12 0.48,0 1.56,0.04 2.04,0.12 l 0.08,-0.12 c -0.32,-2.28 -0.4,-5.00001 -0.4,-8 l 0,-9.8 c 0,-3 0.08,-5.88001 0.4,-8 l -0.08,-0.12 c -0.48,0.08 -1.56,0.12 -2.04,0.12 -0.48,0 -1.56,-0.04 -2.04,-0.12 l -0.08,0.12 c 0.32,2.27999 0.4,5 0.4,8"
         style="font-size:40px;fill:#a19e9e;fill-opacity:1"
         id="path4115" />
      <path
         d="m 353.48667,358.12708 c -1.32,0.04 -3.00001,0.08 -4.16,0.08 -1.16,0 -3.32001,-0.04 -4.2,-0.08 l 4.24,-9.84 0.08,0 c 1.63999,3.75999 2.96,7.04 4.04,9.84 m -9.12,1.88 c 0.99999,-0.08 3.76,-0.12 5.16,-0.12 1.51999,0 3.72,0.04 4.68,0.12 1.95999,5.23999 2.84,8.36 3.12,9.24 0.67999,-0.12 1.32,-0.12 2,-0.12 0.67999,0 1.72,0 2.4,0.12 -2,-4.04 -7.28001,-17.68001 -10.96,-26.44 l -1.12,0 c -3.84,8.87999 -7.76001,17.6 -11.8,26.44 0.47999,-0.12 0.96,-0.12 1.4,-0.12 0.43999,0 1.32,0 1.8,0.12 0.63999,-2.44 1.88,-5.72001 3.32,-9.24"
         style="font-size:40px;fill:#a19e9e;fill-opacity:1"
         id="path4117" />
      <path
         d="m 370.00292,351.32708 c 0,-3 0.08,-5.88001 0.4,-8 l -0.04,-0.12 c -0.48,0.08 -1.60001,0.12 -2.08,0.12 -0.48,0 -1.56001,-0.04 -2.04,-0.12 l -0.08,0.12 c 0.31999,2.27999 0.4,5 0.4,8 l 0,9.8 c 0,2.99999 -0.08,5.84 -0.4,8 l 0.04,0.12 c 0,0 0.72,-0.12 2.08,-0.12 l 10.92,0 c 0.83999,0 1.76,0.04 2.4,0.12 l 0.08,-0.12 c -0.04,-0.56 -0.08,-1.36001 -0.08,-1.76 0,-0.4 0.04,-1.08001 0.08,-1.4 l -0.08,-0.16 c 0,0 -5.92001,0.88 -11.28,0.88 -0.28,-0.96 -0.32,-4.88001 -0.32,-5.56 l 0,-9.8"
         style="font-size:40px;fill:#a19e9e;fill-opacity:1"
         id="path4119" />
    </g>
    <text
       xml:space="preserve"
       style="font-size:60px;font-style:normal;font-variant:normal;font-weight:normal;font-stretch:normal;line-height:125%;letter-spacing:0px;word-spacing:0px;fill:#000000;fill-opacity:1;stroke:none;font-family:Linux Biolinum O;-inkscape-font-specification:Linux Biolinum O"
       x="-71.121056"
       y="595.32513"
       id="text2985-9-4"
       sodipodi:linespacing="125%"><tspan
         sodipodi:role="line"
         id="tspan2987-6-6"
         x="-71.121056"
         y="595.32513"
         style="font-size:50px" /></text>
  </g>
</svg>
